<svg width="144" height="23" viewBox="0 0 144 23" fill="none" xmlns="http://www.w3.org/2000/svg">
<mask id="path-1-inside-1_312_2" fill="white">
<path d="M30.526 2.034C33.3167 2.034 35.544 2.66666 37.208 3.932C38.8893 5.19733 39.73 7.52866 39.73 10.926C39.73 14.254 38.9067 16.6027 37.26 17.972C35.6133 19.324 33.5247 20 30.994 20H26.106V2.034H30.526ZM29.538 4.608V17.426H31.228C32.7533 17.426 33.9493 16.958 34.816 16.022C35.6827 15.0687 36.116 13.37 36.116 10.926C36.116 9.22733 35.8907 7.91866 35.44 7C35.0067 6.064 34.426 5.43133 33.698 5.102C32.9873 4.77266 32.1293 4.608 31.124 4.608H29.538Z"/>
<path d="M48.4774 5.856C50.5054 5.856 52.0827 6.506 53.2094 7.806C54.3534 9.08866 54.9254 10.8567 54.9254 13.11C54.9254 14.5487 54.6654 15.8227 54.1454 16.932C53.6254 18.024 52.88 18.8733 51.9094 19.48C50.9387 20.0867 49.786 20.39 48.4514 20.39C46.4234 20.39 44.8374 19.7487 43.6934 18.466C42.5494 17.166 41.9774 15.3807 41.9774 13.11C41.9774 11.6713 42.2374 10.406 42.7574 9.314C43.2774 8.222 44.0227 7.37266 44.9934 6.766C45.9814 6.15933 47.1427 5.856 48.4774 5.856ZM48.4774 8.378C46.484 8.378 45.4874 9.95533 45.4874 13.11C45.4874 14.7393 45.73 15.944 46.2154 16.724C46.718 17.4867 47.4634 17.868 48.4514 17.868C49.4394 17.868 50.176 17.478 50.6614 16.698C51.164 15.918 51.4154 14.722 51.4154 13.11C51.4154 11.498 51.164 10.3107 50.6614 9.548C50.176 8.768 49.448 8.378 48.4774 8.378Z"/>
<path d="M63.661 5.856C65.689 5.856 67.2663 6.506 68.393 7.806C69.537 9.08866 70.109 10.8567 70.109 13.11C70.109 14.5487 69.849 15.8227 69.329 16.932C68.809 18.024 68.0636 18.8733 67.093 19.48C66.1223 20.0867 64.9696 20.39 63.635 20.39C61.607 20.39 60.021 19.7487 58.877 18.466C57.733 17.166 57.161 15.3807 57.161 13.11C57.161 11.6713 57.421 10.406 57.941 9.314C58.461 8.222 59.2063 7.37266 60.177 6.766C61.165 6.15933 62.3263 5.856 63.661 5.856ZM63.661 8.378C61.6676 8.378 60.671 9.95533 60.671 13.11C60.671 14.7393 60.9136 15.944 61.399 16.724C61.9016 17.4867 62.647 17.868 63.635 17.868C64.623 17.868 65.3596 17.478 65.845 16.698C66.3476 15.918 66.599 14.722 66.599 13.11C66.599 11.498 66.3476 10.3107 65.845 9.548C65.3596 8.768 64.6316 8.378 63.661 8.378Z"/>
<path d="M80.0146 5.882C80.5172 5.882 80.9766 5.94266 81.3926 6.064L80.8206 9.288C80.4046 9.184 79.9972 9.132 79.5986 9.132C78.7839 9.132 78.1426 9.42666 77.6746 10.016C77.2066 10.588 76.8339 11.472 76.5566 12.668V20H73.2286V6.246H76.1146L76.4266 8.95C76.7559 7.962 77.2326 7.208 77.8566 6.688C78.4806 6.15066 79.1999 5.882 80.0146 5.882Z"/>
<path d="M86.997 2.034V17.192H94.199L93.809 20H83.565V2.034H86.997Z"/>
<path d="M106.525 16.36C106.525 16.8973 106.603 17.296 106.759 17.556C106.933 17.7987 107.201 17.9893 107.565 18.128L106.863 20.338C106.083 20.2687 105.442 20.078 104.939 19.766C104.454 19.454 104.081 18.9773 103.821 18.336C103.353 19.0293 102.764 19.5493 102.053 19.896C101.36 20.2253 100.58 20.39 99.7134 20.39C98.3441 20.39 97.2608 20 96.4634 19.22C95.6661 18.44 95.2674 17.4173 95.2674 16.152C95.2674 14.6613 95.8048 13.526 96.8794 12.746C97.9714 11.9487 99.5228 11.55 101.533 11.55H103.249V10.77C103.249 9.886 103.041 9.27066 102.625 8.924C102.227 8.56 101.577 8.378 100.675 8.378C99.6701 8.378 98.4568 8.62066 97.0354 9.106L96.2554 6.844C97.9714 6.18533 99.6354 5.856 101.247 5.856C104.766 5.856 106.525 7.43333 106.525 10.588V16.36ZM100.597 17.972C101.724 17.972 102.608 17.4087 103.249 16.282V13.5H101.871C99.7221 13.5 98.6474 14.2973 98.6474 15.892C98.6474 16.5507 98.8121 17.062 99.1414 17.426C99.4708 17.79 99.9561 17.972 100.597 17.972Z"/>
<path d="M118.431 19.35C117.945 19.6967 117.399 19.9567 116.793 20.13C116.203 20.3033 115.597 20.39 114.973 20.39C113.621 20.3727 112.589 19.9913 111.879 19.246C111.185 18.4833 110.839 17.3653 110.839 15.892V8.638H108.681V6.246H110.839V3.204L114.167 2.814V6.246H117.365L117.027 8.638H114.167V15.814C114.167 16.49 114.279 16.9753 114.505 17.27C114.747 17.5647 115.12 17.712 115.623 17.712C116.125 17.712 116.671 17.5473 117.261 17.218L118.431 19.35Z"/>
<path d="M125.409 5.856C126.31 5.856 127.116 5.986 127.827 6.246C128.555 6.506 129.24 6.91333 129.881 7.468L128.399 9.47C127.931 9.12333 127.48 8.872 127.047 8.716C126.614 8.56 126.137 8.482 125.617 8.482C123.554 8.482 122.523 10.0507 122.523 13.188C122.523 14.7827 122.792 15.9353 123.329 16.646C123.866 17.3393 124.629 17.686 125.617 17.686C126.102 17.686 126.544 17.608 126.943 17.452C127.359 17.296 127.844 17.0447 128.399 16.698L129.881 18.804C128.581 19.8613 127.099 20.39 125.435 20.39C124.118 20.39 122.974 20.104 122.003 19.532C121.032 18.9427 120.287 18.1107 119.767 17.036C119.247 15.9613 118.987 14.696 118.987 13.24C118.987 11.784 119.247 10.5013 119.767 9.392C120.287 8.26533 121.032 7.39866 122.003 6.792C122.974 6.168 124.109 5.856 125.409 5.856Z"/>
<path d="M139.619 5.856C140.832 5.856 141.786 6.22866 142.479 6.974C143.172 7.71933 143.519 8.742 143.519 10.042V20H140.191V10.562C140.191 9.74733 140.044 9.17533 139.749 8.846C139.472 8.51666 139.056 8.352 138.501 8.352C137.946 8.352 137.435 8.534 136.967 8.898C136.499 9.24466 136.048 9.74733 135.615 10.406V20H132.287V0.759997L135.615 0.421997V7.884C136.724 6.532 138.059 5.856 139.619 5.856Z"/>
<path d="M16 20H8V2H16V20Z"/>
<path d="M0 23L8 19.8784V2L0 4.83784V23Z"/>
</mask>
<path d="M37.208 3.932L36.6027 4.72801L36.6067 4.73101L37.208 3.932ZM37.26 17.972L37.8946 18.7449L37.8994 18.7409L37.26 17.972ZM26.106 20H25.106V21H26.106V20ZM26.106 2.034V1.034H25.106V2.034H26.106ZM29.538 4.608V3.608H28.538V4.608H29.538ZM29.538 17.426H28.538V18.426H29.538V17.426ZM34.816 16.022L35.5498 16.7014L35.5559 16.6947L34.816 16.022ZM35.44 7L34.5325 7.42012L34.5373 7.43033L34.5422 7.44042L35.44 7ZM33.698 5.102L33.2775 6.00935L33.2858 6.01311L33.698 5.102ZM53.2094 7.806L52.4537 8.46093L52.4583 8.4663L52.4631 8.47161L53.2094 7.806ZM54.1454 16.932L55.0483 17.3619L55.0508 17.3564L54.1454 16.932ZM51.9094 19.48L51.3794 18.632L51.3794 18.632L51.9094 19.48ZM43.6934 18.466L42.9426 19.1266L42.9471 19.1316L43.6934 18.466ZM42.7574 9.314L43.6602 9.74393L43.6602 9.74393L42.7574 9.314ZM44.9934 6.766L44.4701 5.9138L44.4634 5.918L44.9934 6.766ZM46.2154 16.724L45.3663 17.2523L45.3732 17.2634L45.3804 17.2743L46.2154 16.724ZM50.6614 16.698L49.8208 16.1563L49.8165 16.163L49.8123 16.1697L50.6614 16.698ZM50.6614 9.548L49.8123 10.0763L49.8192 10.0874L49.8264 10.0983L50.6614 9.548ZM68.393 7.806L67.6373 8.46093L67.6419 8.4663L67.6467 8.47161L68.393 7.806ZM69.329 16.932L70.2318 17.3619L70.2344 17.3564L69.329 16.932ZM67.093 19.48L66.563 18.632L66.563 18.632L67.093 19.48ZM58.877 18.466L58.1262 19.1266L58.1307 19.1316L58.877 18.466ZM57.941 9.314L58.8438 9.74393L58.8438 9.74393L57.941 9.314ZM60.177 6.766L59.6537 5.9138L59.647 5.918L60.177 6.766ZM61.399 16.724L60.5499 17.2523L60.5568 17.2634L60.564 17.2743L61.399 16.724ZM65.845 16.698L65.0044 16.1563L65.0001 16.163L64.9959 16.1697L65.845 16.698ZM65.845 9.548L64.9959 10.0763L65.0028 10.0874L65.01 10.0983L65.845 9.548ZM81.3926 6.064L82.3772 6.23869L82.5339 5.35523L81.6726 5.104L81.3926 6.064ZM80.8206 9.288L80.578 10.2581L81.6179 10.5181L81.8052 9.46269L80.8206 9.288ZM77.6746 10.016L78.4485 10.6492L78.4531 10.6436L78.4577 10.6379L77.6746 10.016ZM76.5566 12.668L75.5824 12.4421L75.5566 12.5536V12.668H76.5566ZM76.5566 20V21H77.5566V20H76.5566ZM73.2286 20H72.2286V21H73.2286V20ZM73.2286 6.246V5.246H72.2286V6.246H73.2286ZM76.1146 6.246L77.108 6.13137L77.0058 5.246H76.1146V6.246ZM76.4266 8.95L75.4332 9.06462L77.3752 9.26622L76.4266 8.95ZM77.8566 6.688L78.4967 7.45622L78.503 7.45104L78.5091 7.44577L77.8566 6.688ZM86.997 2.034H87.997V1.034H86.997V2.034ZM86.997 17.192H85.997V18.192H86.997V17.192ZM94.199 17.192L95.1895 17.3296L95.3475 16.192H94.199V17.192ZM93.809 20V21H94.6797L94.7995 20.1376L93.809 20ZM83.565 20H82.565V21H83.565V20ZM83.565 2.034V1.034H82.565V2.034H83.565ZM106.759 17.556L105.902 18.0705L105.922 18.1047L105.946 18.1372L106.759 17.556ZM107.565 18.128L108.518 18.4307L108.805 17.53L107.921 17.1935L107.565 18.128ZM106.863 20.338L106.775 21.3341L107.574 21.4051L107.816 20.6407L106.863 20.338ZM104.939 19.766L104.399 20.6072L104.405 20.6115L104.412 20.6156L104.939 19.766ZM103.821 18.336L104.748 17.9603L104.043 16.2205L102.993 17.7765L103.821 18.336ZM102.053 19.896L102.483 20.7993L102.492 20.7948L102.053 19.896ZM96.4634 19.22L95.7641 19.9348L95.7641 19.9348L96.4634 19.22ZM96.8794 12.746L97.4668 13.5553L97.4691 13.5536L96.8794 12.746ZM103.249 11.55V12.55H104.249V11.55H103.249ZM102.625 8.924L101.951 9.66248L101.968 9.67774L101.985 9.69222L102.625 8.924ZM97.0354 9.106L96.0901 9.43199L96.4151 10.3745L97.3586 10.0523L97.0354 9.106ZM96.2554 6.844L95.8971 5.91041L94.9951 6.25662L95.3101 7.16999L96.2554 6.844ZM103.249 16.282L104.118 16.7767L104.249 16.5467V16.282H103.249ZM103.249 13.5H104.249V12.5H103.249V13.5ZM99.1414 17.426L99.883 16.7551L99.883 16.7551L99.1414 17.426ZM118.431 19.35L119.012 20.1637L119.735 19.6475L119.307 18.8689L118.431 19.35ZM116.793 20.13L116.518 19.1684L116.511 19.1706L116.793 20.13ZM114.973 20.39L114.96 21.39H114.973V20.39ZM111.879 19.246L111.139 19.9187L111.147 19.9275L111.155 19.9361L111.879 19.246ZM110.839 8.638H111.839V7.638H110.839V8.638ZM108.681 8.638H107.681V9.638H108.681V8.638ZM108.681 6.246V5.246H107.681V6.246H108.681ZM110.839 6.246V7.246H111.839V6.246H110.839ZM110.839 3.204L110.722 2.21079L109.839 2.31434V3.204H110.839ZM114.167 2.814H115.167V1.68997L114.05 1.82079L114.167 2.814ZM114.167 6.246H113.167V7.246H114.167V6.246ZM117.365 6.246L118.355 6.38591L118.516 5.246H117.365V6.246ZM117.027 8.638V9.638H117.895L118.017 8.77791L117.027 8.638ZM114.167 8.638V7.638H113.167V8.638H114.167ZM114.505 17.27L113.71 17.8774L113.721 17.8918L113.733 17.9057L114.505 17.27ZM117.261 17.218L118.137 16.7369L117.653 15.8535L116.773 16.3451L117.261 17.218ZM127.827 6.246L127.484 7.18515L127.491 7.18774L127.827 6.246ZM129.881 7.468L130.685 8.06297L131.236 7.31797L130.535 6.71163L129.881 7.468ZM128.399 9.47L127.804 10.2736L128.608 10.869L129.203 10.065L128.399 9.47ZM123.329 16.646L122.531 17.2491L122.539 17.2586L123.329 16.646ZM126.943 17.452L126.592 16.5157L126.585 16.5182L126.579 16.5208L126.943 17.452ZM128.399 16.698L129.217 16.1225L128.672 15.3482L127.869 15.85L128.399 16.698ZM129.881 18.804L130.512 19.5798L131.236 18.9913L130.699 18.2285L129.881 18.804ZM122.003 19.532L121.484 20.3869L121.495 20.3935L122.003 19.532ZM119.767 17.036L120.667 16.6004L120.667 16.6004L119.767 17.036ZM119.767 9.392L120.673 9.81644L120.675 9.81106L119.767 9.392ZM122.003 6.792L122.533 7.64006L122.544 7.63318L122.003 6.792ZM142.479 6.974L143.211 6.29289L143.211 6.29289L142.479 6.974ZM143.519 20V21H144.519V20H143.519ZM140.191 20H139.191V21H140.191V20ZM139.749 8.846L138.984 9.49013L138.994 9.50161L139.004 9.51279L139.749 8.846ZM136.967 8.898L137.562 9.70155L137.572 9.69456L137.581 9.68735L136.967 8.898ZM135.615 10.406L134.78 9.85638L134.615 10.1065V10.406H135.615ZM135.615 20V21H136.615V20H135.615ZM132.287 20H131.287V21H132.287V20ZM132.287 0.759997L132.186 -0.234885L131.287 -0.143584V0.759997H132.287ZM135.615 0.421997H136.615V-0.68471L135.514 -0.572885L135.615 0.421997ZM135.615 7.884H134.615V10.6792L136.388 8.51831L135.615 7.884ZM8 20H7V21H8V20ZM16 20V21H17V20H16ZM16 2H17V0.999998H16V2ZM8 2V0.999998H7.82789L7.66568 1.05754L8 2ZM8 19.8784L8.36351 20.81L9 20.5616V19.8784H8ZM0 23H-1V24.4636L0.363509 23.9316L0 23ZM0 4.83784L-0.334319 3.89538L-1 4.13151V4.83784H0ZM30.526 3.034C33.1708 3.034 35.163 3.63319 36.6027 4.728L37.8133 3.13599C35.925 1.70014 33.4625 1.034 30.526 1.034V3.034ZM36.6067 4.73101C37.9145 5.71528 38.73 7.64895 38.73 10.926H40.73C40.73 7.40838 39.8641 4.67938 37.8093 3.13299L36.6067 4.73101ZM38.73 10.926C38.73 14.122 37.9366 16.1088 36.6206 17.2031L37.8994 18.7409C39.8767 17.0966 40.73 14.386 40.73 10.926H38.73ZM36.6254 17.1991C35.1898 18.3779 33.3386 19 30.994 19V21C33.7107 21 36.0369 20.2701 37.8946 18.7449L36.6254 17.1991ZM30.994 19H26.106V21H30.994V19ZM27.106 20V2.034H25.106V20H27.106ZM26.106 3.034H30.526V1.034H26.106V3.034ZM28.538 4.608V17.426H30.538V4.608H28.538ZM29.538 18.426H31.228V16.426H29.538V18.426ZM31.228 18.426C32.9727 18.426 34.4571 17.8815 35.5498 16.7014L34.0822 15.3426C33.4416 16.0345 32.5339 16.426 31.228 16.426V18.426ZM35.5559 16.6947C36.6866 15.4509 37.116 13.4227 37.116 10.926H35.116C35.116 13.3173 34.6787 14.6864 34.0761 15.3493L35.5559 16.6947ZM37.116 10.926C37.116 9.16309 36.8861 7.67721 36.3378 6.55957L34.5422 7.44042C34.8953 8.16012 35.116 9.29157 35.116 10.926H37.116ZM36.3475 6.57987C35.8433 5.49086 35.1141 4.64506 34.1102 4.19089L33.2858 6.01311C33.7379 6.2176 34.17 6.63713 34.5325 7.42012L36.3475 6.57987ZM34.1185 4.19469C33.2442 3.78956 32.2349 3.608 31.124 3.608V5.608C32.0238 5.608 32.7304 5.75577 33.2775 6.00931L34.1185 4.19469ZM31.124 3.608H29.538V5.608H31.124V3.608ZM48.4774 6.856C50.2725 6.856 51.5514 7.41988 52.4537 8.46093L53.9651 7.15107C52.614 5.59211 50.7382 4.856 48.4774 4.856V6.856ZM52.4631 8.47161C53.3983 9.52018 53.9254 11.0241 53.9254 13.11H55.9254C55.9254 10.6892 55.3085 8.65715 53.9557 7.14038L52.4631 8.47161ZM53.9254 13.11C53.9254 14.4273 53.6877 15.5523 53.2399 16.5076L55.0508 17.3564C55.643 16.0931 55.9254 14.67 55.9254 13.11H53.9254ZM53.2425 16.5021C52.7996 17.4322 52.1791 18.1322 51.3794 18.632L52.4394 20.328C53.581 19.6145 54.4512 18.6157 55.0482 17.3619L53.2425 16.5021ZM51.3794 18.632C50.5925 19.1238 49.6303 19.39 48.4514 19.39V21.39C49.9418 21.39 51.2849 21.0495 52.4394 20.328L51.3794 18.632ZM48.4514 19.39C46.6522 19.39 45.3595 18.8317 44.4397 17.8004L42.9471 19.1316C44.3153 20.6657 46.1946 21.39 48.4514 21.39V19.39ZM44.4441 17.8054C43.5053 16.7386 42.9774 15.2147 42.9774 13.11H40.9774C40.9774 15.5467 41.5934 17.5934 42.9427 19.1266L44.4441 17.8054ZM42.9774 13.11C42.9774 11.7922 43.2152 10.6785 43.6602 9.74393L41.8545 8.88406C41.2596 10.1335 40.9774 11.5505 40.9774 13.11H42.9774ZM43.6602 9.74393C44.1032 8.81375 44.7236 8.11384 45.5234 7.614L44.4634 5.918C43.3218 6.63148 42.4516 7.63025 41.8545 8.88406L43.6602 9.74393ZM45.5166 7.61817C46.3246 7.12205 47.299 6.856 48.4774 6.856V4.856C46.9865 4.856 45.6381 5.19661 44.4701 5.91383L45.5166 7.61817ZM48.4774 7.378C47.1658 7.378 46.0856 7.92512 45.3895 9.02683C44.7423 10.0512 44.4874 11.4596 44.4874 13.11H46.4874C46.4874 11.6057 46.7308 10.6482 47.0803 10.0952C47.3808 9.61954 47.7956 9.378 48.4774 9.378V7.378ZM44.4874 13.11C44.4874 14.8006 44.7322 16.2332 45.3663 17.2523L47.0644 16.1957C46.7278 15.6548 46.4874 14.6781 46.4874 13.11H44.4874ZM45.3804 17.2743C46.0854 18.3439 47.1598 18.868 48.4514 18.868V16.868C47.767 16.868 47.3507 16.6294 47.0503 16.1737L45.3804 17.2743ZM48.4514 18.868C49.7535 18.868 50.8266 18.3253 51.5104 17.2263L49.8123 16.1697C49.5255 16.6307 49.1252 16.868 48.4514 16.868V18.868ZM51.5019 17.2397C52.1602 16.2183 52.4154 14.7895 52.4154 13.11H50.4154C50.4154 14.6545 50.1679 15.6177 49.8208 16.1563L51.5019 17.2397ZM52.4154 13.11C52.4154 11.4333 52.1613 10.0065 51.4963 8.99768L49.8264 10.0983C50.1668 10.6148 50.4154 11.5627 50.4154 13.11H52.4154ZM51.5104 9.0197C50.8304 7.92682 49.7699 7.378 48.4774 7.378V9.378C49.1262 9.378 49.5217 9.60918 49.8123 10.0763L51.5104 9.0197ZM63.661 6.856C65.4561 6.856 66.735 7.41988 67.6373 8.46093L69.1487 7.15107C67.7976 5.59211 65.9218 4.856 63.661 4.856V6.856ZM67.6467 8.47161C68.5819 9.52018 69.109 11.0241 69.109 13.11H71.109C71.109 10.6892 70.4921 8.65715 69.1393 7.14038L67.6467 8.47161ZM69.109 13.11C69.109 14.4273 68.8713 15.5523 68.4235 16.5076L70.2344 17.3564C70.8266 16.0931 71.109 14.67 71.109 13.11H69.109ZM68.4261 16.5021C67.9832 17.4322 67.3627 18.1322 66.563 18.632L67.623 20.328C68.7645 19.6145 69.6348 18.6157 70.2318 17.3619L68.4261 16.5021ZM66.563 18.632C65.7761 19.1238 64.8139 19.39 63.635 19.39V21.39C65.1254 21.39 66.4685 21.0495 67.623 20.328L66.563 18.632ZM63.635 19.39C61.8358 19.39 60.5431 18.8317 59.6233 17.8004L58.1307 19.1316C59.4989 20.6657 61.3781 21.39 63.635 21.39V19.39ZM59.6277 17.8054C58.6889 16.7386 58.161 15.2147 58.161 13.11H56.161C56.161 15.5467 56.777 17.5934 58.1263 19.1266L59.6277 17.8054ZM58.161 13.11C58.161 11.7922 58.3988 10.6785 58.8438 9.74393L57.0381 8.88406C56.4432 10.1335 56.161 11.5505 56.161 13.11H58.161ZM58.8438 9.74393C59.2868 8.81375 59.9072 8.11384 60.707 7.614L59.647 5.918C58.5054 6.63148 57.6352 7.63025 57.0381 8.88406L58.8438 9.74393ZM60.7002 7.61817C61.5082 7.12205 62.4826 6.856 63.661 6.856V4.856C62.17 4.856 60.8217 5.19661 59.6537 5.91383L60.7002 7.61817ZM63.661 7.378C62.3494 7.378 61.2692 7.92512 60.5731 9.02683C59.9258 10.0512 59.671 11.4596 59.671 13.11H61.671C61.671 11.6057 61.9144 10.6482 62.2638 10.0952C62.5644 9.61954 62.9792 9.378 63.661 9.378V7.378ZM59.671 13.11C59.671 14.8006 59.9158 16.2332 60.5499 17.2523L62.248 16.1957C61.9114 15.6548 61.671 14.6781 61.671 13.11H59.671ZM60.564 17.2743C61.269 18.3439 62.3434 18.868 63.635 18.868V16.868C62.9506 16.868 62.5343 16.6294 62.2339 16.1737L60.564 17.2743ZM63.635 18.868C64.9371 18.868 66.0102 18.3253 66.694 17.2263L64.9959 16.1697C64.7091 16.6307 64.3088 16.868 63.635 16.868V18.868ZM66.6855 17.2397C67.3438 16.2183 67.599 14.7895 67.599 13.11H65.599C65.599 14.6545 65.3515 15.6177 65.0044 16.1563L66.6855 17.2397ZM67.599 13.11C67.599 11.4333 67.3448 10.0065 66.6799 8.99768L65.01 10.0983C65.3504 10.6148 65.599 11.5627 65.599 13.11H67.599ZM66.694 9.0197C66.014 7.92682 64.9535 7.378 63.661 7.378V9.378C64.3098 9.378 64.7053 9.60918 64.9959 10.0763L66.694 9.0197ZM80.0146 6.882C80.4373 6.882 80.8007 6.93304 81.1126 7.024L81.6726 5.104C81.1524 4.95229 80.5972 4.882 80.0146 4.882V6.882ZM80.4079 5.88931L79.8359 9.11331L81.8052 9.46269L82.3772 6.23869L80.4079 5.88931ZM81.0631 8.31785C80.5737 8.19551 80.0849 8.132 79.5986 8.132V10.132C79.9096 10.132 80.2354 10.1725 80.578 10.2581L81.0631 8.31785ZM79.5986 8.132C78.5077 8.132 77.5664 8.54415 76.8914 9.39412L78.4577 10.6379C78.7187 10.3092 79.0601 10.132 79.5986 10.132V8.132ZM76.9006 9.38276C76.2916 10.127 75.8743 11.1834 75.5824 12.4421L77.5307 12.8939C77.7935 11.7606 78.1215 11.0489 78.4485 10.6492L76.9006 9.38276ZM75.5566 12.668V20H77.5566V12.668H75.5566ZM76.5566 19H73.2286V21H76.5566V19ZM74.2286 20V6.246H72.2286V20H74.2286ZM73.2286 7.246H76.1146V5.246H73.2286V7.246ZM75.1212 6.36062L75.4332 9.06462L77.42 8.83537L77.108 6.13137L75.1212 6.36062ZM77.3752 9.26622C77.6621 8.40556 78.0507 7.8279 78.4967 7.45622L77.2164 5.91978C76.4144 6.58809 75.8497 7.51843 75.4779 8.63377L77.3752 9.26622ZM78.5091 7.44577C78.9538 7.06285 79.4422 6.882 80.0146 6.882V4.882C78.9576 4.882 78.0074 5.23847 77.204 5.93023L78.5091 7.44577ZM85.997 2.034V17.192H87.997V2.034H85.997ZM86.997 18.192H94.199V16.192H86.997V18.192ZM93.2085 17.0544L92.8185 19.8624L94.7995 20.1376L95.1895 17.3296L93.2085 17.0544ZM93.809 19H83.565V21H93.809V19ZM84.565 20V2.034H82.565V20H84.565ZM83.565 3.034H86.997V1.034H83.565V3.034ZM105.525 16.36C105.525 16.9574 105.606 17.5765 105.902 18.0705L107.617 17.0415C107.617 17.0415 107.615 17.0385 107.612 17.0317C107.609 17.0248 107.604 17.0145 107.599 17.0002C107.589 16.9712 107.577 16.9287 107.565 16.87C107.542 16.7504 107.525 16.5835 107.525 16.36H105.525ZM105.946 18.1372C106.264 18.5825 106.717 18.8749 107.209 19.0625L107.921 17.1935C107.686 17.1038 107.602 17.0148 107.573 16.9748L105.946 18.1372ZM106.612 17.8253L105.91 20.0353L107.816 20.6407L108.518 18.4307L106.612 17.8253ZM106.952 19.3419C106.279 19.2821 105.801 19.1237 105.467 18.9164L104.412 20.6156C105.083 21.0323 105.887 21.2552 106.775 21.3341L106.952 19.3419ZM105.48 18.9248C105.201 18.7452 104.946 18.4493 104.748 17.9603L102.895 18.7117C103.216 19.5054 103.707 20.1628 104.399 20.6072L105.48 18.9248ZM102.993 17.7765C102.617 18.3332 102.159 18.732 101.615 18.9972L102.492 20.7948C103.369 20.3667 104.09 19.7254 104.65 18.8955L102.993 17.7765ZM101.624 18.9927C101.081 19.2506 100.451 19.39 99.7134 19.39V21.39C100.709 21.39 101.639 21.2001 102.482 20.7993L101.624 18.9927ZM99.7134 19.39C98.5425 19.39 97.7325 19.0626 97.1627 18.5052L95.7641 19.9348C96.789 20.9374 98.1457 21.39 99.7134 21.39V19.39ZM97.1627 18.5052C96.5842 17.9392 96.2674 17.1878 96.2674 16.152H94.2674C94.2674 17.6468 94.748 18.9408 95.7641 19.9348L97.1627 18.5052ZM96.2674 16.152C96.2674 14.9363 96.686 14.122 97.4668 13.5553L96.292 11.9367C94.9235 12.93 94.2674 14.3864 94.2674 16.152H96.2674ZM97.4691 13.5536C98.3248 12.9289 99.6366 12.55 101.533 12.55V10.55C99.4089 10.55 97.6181 10.9685 96.2897 11.9384L97.4691 13.5536ZM101.533 12.55H103.249V10.55H101.533V12.55ZM104.249 11.55V10.77H102.249V11.55H104.249ZM104.249 10.77C104.249 9.77358 104.021 8.78522 103.266 8.15578L101.985 9.69222C102.062 9.75611 102.249 9.99842 102.249 10.77H104.249ZM103.3 8.18551C102.627 7.57159 101.67 7.378 100.675 7.378V9.378C101.483 9.378 101.826 9.54841 101.951 9.66248L103.3 8.18551ZM100.675 7.378C99.5201 7.378 98.1914 7.65457 96.7123 8.15965L97.3586 10.0523C98.7221 9.58676 99.82 9.378 100.675 9.378V7.378ZM97.9808 8.78001L97.2008 6.51801L95.3101 7.16999L96.0901 9.43199L97.9808 8.78001ZM96.6138 7.77759C98.2313 7.15673 99.7739 6.856 101.247 6.856V4.856C99.497 4.856 97.7116 5.21394 95.8971 5.91041L96.6138 7.77759ZM101.247 6.856C102.878 6.856 103.914 7.22382 104.538 7.78357C105.142 8.32469 105.525 9.19475 105.525 10.588H107.525C107.525 8.82658 107.029 7.33064 105.873 6.29443C104.738 5.27684 103.136 4.856 101.247 4.856V6.856ZM105.525 10.588V16.36H107.525V10.588H105.525ZM100.597 18.972C102.144 18.972 103.331 18.1593 104.118 16.7767L102.38 15.7873C101.885 16.658 101.304 16.972 100.597 16.972V18.972ZM104.249 16.282V13.5H102.249V16.282H104.249ZM103.249 12.5H101.871V14.5H103.249V12.5ZM101.871 12.5C100.702 12.5 99.6436 12.7117 98.8576 13.2949C98.0156 13.9196 97.6474 14.8466 97.6474 15.892H99.6474C99.6474 15.3427 99.8166 15.0737 100.049 14.9011C100.338 14.687 100.891 14.5 101.871 14.5V12.5ZM97.6474 15.892C97.6474 16.7125 97.8543 17.4939 98.3999 18.0969L99.883 16.7551C99.7699 16.6301 99.6474 16.3888 99.6474 15.892H97.6474ZM98.3999 18.0969C98.9726 18.7299 99.7651 18.972 100.597 18.972V16.972C100.147 16.972 99.9689 16.8501 99.883 16.7551L98.3999 18.0969ZM117.85 18.5363C117.462 18.8128 117.021 19.0247 116.518 19.1685L117.067 21.0915C117.778 20.8886 118.428 20.5806 119.012 20.1637L117.85 18.5363ZM116.511 19.1706C116.014 19.3166 115.503 19.39 114.973 19.39V21.39C115.691 21.39 116.393 21.2901 117.075 21.0894L116.511 19.1706ZM114.986 19.3901C113.815 19.3751 113.075 19.0511 112.603 18.5559L111.155 19.9361C112.104 20.9316 113.427 21.3703 114.96 21.3899L114.986 19.3901ZM112.619 18.5733C112.153 18.0605 111.839 17.2226 111.839 15.892H109.839C109.839 17.508 110.218 18.9062 111.139 19.9187L112.619 18.5733ZM111.839 15.892V8.638H109.839V15.892H111.839ZM110.839 7.638H108.681V9.638H110.839V7.638ZM109.681 8.638V6.246H107.681V8.638H109.681ZM108.681 7.246H110.839V5.246H108.681V7.246ZM111.839 6.246V3.204H109.839V6.246H111.839ZM110.955 4.1972L114.283 3.8072L114.05 1.82079L110.722 2.21079L110.955 4.1972ZM113.167 2.814V6.246H115.167V2.814H113.167ZM114.167 7.246H117.365V5.246H114.167V7.246ZM116.375 6.10608L116.037 8.49808L118.017 8.77791L118.355 6.38591L116.375 6.10608ZM117.027 7.638H114.167V9.638H117.027V7.638ZM113.167 8.638V15.814H115.167V8.638H113.167ZM113.167 15.814C113.167 16.5513 113.28 17.3146 113.71 17.8774L115.299 16.6625C115.279 16.6361 115.167 16.4287 115.167 15.814H113.167ZM113.733 17.9057C114.222 18.4993 114.923 18.712 115.623 18.712V16.712C115.467 16.712 115.378 16.6888 115.334 16.6715C115.297 16.6569 115.285 16.6443 115.277 16.6343L113.733 17.9057ZM115.623 18.712C116.345 18.712 117.059 18.4761 117.749 18.0909L116.773 16.3451C116.284 16.6186 115.906 16.712 115.623 16.712V18.712ZM116.384 17.6991L117.554 19.8311L119.307 18.8689L118.137 16.7369L116.384 17.6991ZM125.409 6.856C126.215 6.856 126.902 6.97227 127.484 7.18512L128.171 5.30687C127.331 4.99973 126.406 4.856 125.409 4.856V6.856ZM127.491 7.18774C128.092 7.40228 128.67 7.74276 129.227 8.22436L130.535 6.71163C129.809 6.0839 129.019 5.60971 128.163 5.30425L127.491 7.18774ZM129.077 6.87302L127.595 8.87502L129.203 10.065L130.685 8.06297L129.077 6.87302ZM128.994 8.66644C128.468 8.27632 127.931 7.97152 127.386 7.77511L126.708 9.65689C127.03 9.77248 127.395 9.97034 127.804 10.2736L128.994 8.66644ZM127.386 7.77511C126.831 7.57529 126.238 7.482 125.617 7.482V9.482C126.036 9.482 126.397 9.5447 126.708 9.65689L127.386 7.77511ZM125.617 7.482C124.289 7.482 123.182 8.01218 122.461 9.10913C121.788 10.1329 121.523 11.5415 121.523 13.188H123.523C123.523 11.6971 123.774 10.7528 124.132 10.2079C124.442 9.73615 124.883 9.482 125.617 9.482V7.482ZM121.523 13.188C121.523 14.8486 121.794 16.2737 122.531 17.2491L124.127 16.0429C123.79 15.597 123.523 14.7167 123.523 13.188H121.523ZM122.539 17.2586C123.291 18.2295 124.364 18.686 125.617 18.686V16.686C124.894 16.686 124.442 16.4492 124.12 16.0334L122.539 17.2586ZM125.617 18.686C126.211 18.686 126.778 18.5903 127.308 18.3832L126.579 16.5208C126.311 16.6257 125.994 16.686 125.617 16.686V18.686ZM127.294 18.3883C127.794 18.2008 128.342 17.9131 128.929 17.546L127.869 15.85C127.347 16.1762 126.924 16.3912 126.592 16.5157L127.294 18.3883ZM127.581 17.2735L129.063 19.3795L130.699 18.2285L129.217 16.1225L127.581 17.2735ZM129.25 18.0282C128.127 18.9416 126.868 19.39 125.435 19.39V21.39C127.331 21.39 129.035 20.781 130.512 19.5798L129.25 18.0282ZM125.435 19.39C124.266 19.39 123.303 19.1375 122.511 18.6705L121.495 20.3935C122.644 21.0705 123.97 21.39 125.435 21.39V19.39ZM122.522 18.6772C121.725 18.1932 121.108 17.5109 120.667 16.6004L118.867 17.4716C119.466 18.7104 120.34 19.6921 121.484 20.3868L122.522 18.6772ZM120.667 16.6004C120.226 15.6881 119.987 14.5777 119.987 13.24H117.987C117.987 14.8143 118.268 16.2346 118.867 17.4716L120.667 16.6004ZM119.987 13.24C119.987 11.9034 120.226 10.7702 120.673 9.81643L118.862 8.96756C118.269 10.2324 117.987 11.6646 117.987 13.24H119.987ZM120.675 9.81106C121.121 8.8456 121.741 8.13482 122.533 7.64L121.473 5.944C120.324 6.66251 119.454 7.68506 118.859 8.97294L120.675 9.81106ZM122.544 7.63318C123.333 7.12561 124.276 6.856 125.409 6.856V4.856C123.942 4.856 122.614 5.21038 121.462 5.95082L122.544 7.63318ZM139.619 6.856C140.613 6.856 141.279 7.15194 141.747 7.6551L143.211 6.29289C142.293 5.30538 141.052 4.856 139.619 4.856V6.856ZM141.747 7.6551C142.224 8.16831 142.519 8.92208 142.519 10.042H144.519C144.519 8.56191 144.121 7.27035 143.211 6.29289L141.747 7.6551ZM142.519 10.042V20H144.519V10.042H142.519ZM143.519 19H140.191V21H143.519V19ZM141.191 20V10.562H139.191V20H141.191ZM141.191 10.562C141.191 9.68579 141.044 8.79397 140.494 8.1792L139.004 9.51279C139.043 9.55669 139.191 9.80887 139.191 10.562H141.191ZM140.514 8.20186C139.995 7.58522 139.259 7.352 138.501 7.352V9.352C138.852 9.352 138.949 9.4481 138.984 9.49013L140.514 8.20186ZM138.501 7.352C137.708 7.352 136.984 7.61817 136.353 8.10864L137.581 9.68735C137.886 9.44982 138.185 9.352 138.501 9.352V7.352ZM136.372 8.09444C135.783 8.53087 135.256 9.13205 134.78 9.85638L136.451 10.9556C136.841 10.3626 137.216 9.95845 137.562 9.70155L136.372 8.09444ZM134.615 10.406V20H136.615V10.406H134.615ZM135.615 19H132.287V21H135.615V19ZM133.287 20V0.759997H131.287V20H133.287ZM132.388 1.75488L135.716 1.41688L135.514 -0.572885L132.186 -0.234885L132.388 1.75488ZM134.615 0.421997V7.884H136.615V0.421997H134.615ZM136.388 8.51831C137.334 7.36615 138.397 6.856 139.619 6.856V4.856C137.721 4.856 136.115 5.69784 134.842 7.24968L136.388 8.51831ZM8 21H16V19H8V21ZM17 20V2H15V20H17ZM16 0.999998H8V3H16V0.999998ZM7 2V20H9V2H7ZM7.63649 18.9468L-0.363509 22.0684L0.363509 23.9316L8.36351 20.81L7.63649 18.9468ZM1 23V4.83784H-1V23H1ZM0.334319 5.7803L8.33432 2.94246L7.66568 1.05754L-0.334319 3.89538L0.334319 5.7803ZM7 2V19.8784H9V2H7Z" fill="black" mask="url(#path-1-inside-1_312_2)"/>
</svg>
